<svg width="38" height="29" viewBox="0 0 38 29" fill="none" xmlns="http://www.w3.org/2000/svg">
<path d="M17.1206 18.4025L11.0628 3.08236C7.27067 7.62821 5.55624 9.58125 1.17882 12.8958L7.23668 28.216C12.0275 24.8812 13.9607 22.6124 17.1206 18.4025Z" fill="#FFCDBD"/>
<path d="M17.0144 0.728993L23.0722 16.0491C28.1441 16.9282 31.0738 17.2565 36.9947 16.4491L30.9369 1.12897C25.7663 1.90743 22.7126 1.80177 17.0144 0.728993Z" fill="#FFCDBD"/>
<path d="M17.0144 0.728993C14.7918 1.56013 13.4621 2.08337 11.0628 3.08236L17.1206 18.4025C20.019 18.826 21.3709 18.3427 23.0722 16.0491L17.0144 0.728993Z" fill="#FFAD92"/>
<path d="M11.0628 3.08236C13.4621 2.08337 14.7918 1.56013 17.0144 0.728993M11.0628 3.08236L17.1206 18.4025M11.0628 3.08236C7.27067 7.62821 5.55624 9.58125 1.17882 12.8958L7.23668 28.216C12.0275 24.8812 13.9607 22.6124 17.1206 18.4025M17.0144 0.728993L23.0722 16.0491M17.0144 0.728993C22.7126 1.80176 25.7663 1.90743 30.9369 1.12897L36.9947 16.4491C31.0738 17.2565 28.1441 16.9282 23.0722 16.0491M23.0722 16.0491C21.3709 18.3427 20.019 18.826 17.1206 18.4025" stroke="#FBEAE7"/>
</svg>
