<svg width="182" height="44" viewBox="0 0 182 44" fill="none" xmlns="http://www.w3.org/2000/svg">
<g clip-path="url(#clip0_770_8304)">
<g filter="url(#filter0_ii_770_8304)">
<path d="M0 11.2C0 7.27966 0 5.31948 0.762954 3.8221C1.43407 2.50496 2.50493 1.4341 3.82207 0.762985C5.31945 3.05176e-05 7.27963 3.05176e-05 11.2 3.05176e-05H23.9365C27.8568 3.05176e-05 29.817 3.05176e-05 31.3144 0.762985C32.6315 1.4341 33.7024 2.50496 34.3735 3.8221C35.1365 5.31948 35.1365 7.27966 35.1365 11.2V27.8462C35.1365 31.7665 35.1365 33.7267 34.3735 35.2241C33.7024 36.5412 32.6315 37.6121 31.3144 38.2832C29.817 39.0462 27.8568 39.0462 23.9365 39.0462H0V11.2Z" fill="#F26D1E" fill-opacity="0.65"/>
</g>
<path d="M30.2361 10.3647C30.2361 13.5581 28.1014 16.1469 25.4682 16.1469C22.8349 16.1469 20.7002 13.5581 20.7002 10.3647C20.7002 7.17123 22.8349 4.58243 25.4682 4.58243C28.1014 4.58243 30.2361 7.17123 30.2361 10.3647Z" fill="white"/>
<path d="M29.0731 10.1334C29.0731 11.283 28.5003 12.215 27.7939 12.215C27.0874 12.215 26.5146 11.283 26.5146 10.1334C26.5146 8.98373 27.0874 8.05176 27.7939 8.05176C28.5003 8.05176 29.0731 8.98373 29.0731 10.1334Z" fill="#1A1A1A"/>
<path d="M27.9106 9.55516C27.9106 9.74676 27.7544 9.90209 27.5618 9.90209C27.3691 9.90209 27.2129 9.74676 27.2129 9.55516C27.2129 9.36355 27.3691 9.20822 27.5618 9.20822C27.7544 9.20822 27.9106 9.36355 27.9106 9.55516Z" fill="#F8F8F8"/>
<g filter="url(#filter1_ii_770_8304)">
<path d="M50 25.9479C50 23.1476 50 21.7475 49.455 20.6779C48.9757 19.7371 48.2108 18.9722 47.27 18.4928C46.2004 17.9479 44.8003 17.9479 42 17.9479H34.5565C31.7562 17.9479 30.3561 17.9479 29.2865 18.4928C28.3457 18.9722 27.5808 19.7371 27.1014 20.6779C26.5565 21.7475 26.5565 23.1476 26.5565 25.9479V36C26.5565 38.8003 26.5565 40.2004 27.1014 41.27C27.5808 42.2108 28.3457 42.9757 29.2865 43.455C30.3561 44 31.7562 44 34.5565 44H50V25.9479Z" fill="#1E33F2" fill-opacity="0.5"/>
</g>
<path d="M30.2047 26.3012C30.2047 27.8566 31.1502 29.1175 32.3167 29.1175C33.4831 29.1175 34.4287 27.8566 34.4287 26.3012C34.4287 24.7458 33.4831 23.485 32.3167 23.485C31.1502 23.485 30.2047 24.7458 30.2047 26.3012Z" fill="white"/>
<path d="M30.7806 26.2058C30.7806 26.7594 31.0385 27.2082 31.3566 27.2082C31.6747 27.2082 31.9326 26.7594 31.9326 26.2058C31.9326 25.6522 31.6747 25.2034 31.3566 25.2034C31.0385 25.2034 30.7806 25.6522 30.7806 26.2058Z" fill="#1A1A1A"/>
<path d="M31.2608 25.8717C31.2608 25.9771 31.3253 26.0626 31.4048 26.0626C31.4844 26.0626 31.5488 25.9771 31.5488 25.8717C31.5488 25.7662 31.4844 25.6807 31.4048 25.6807C31.3253 25.6807 31.2608 25.7662 31.2608 25.8717Z" fill="#F8F8F8"/>
<path d="M87.1574 23.51V13.71C88.296 13.71 89.22 13.724 89.9294 13.752C90.648 13.78 91.3014 13.8547 91.8894 13.976C92.9907 14.1907 93.7607 14.55 94.1994 15.054C94.6474 15.5487 94.8714 16.0947 94.8714 16.692C94.8714 17.4667 94.5494 18.0827 93.9054 18.54C94.4187 18.7267 94.7827 18.974 94.9974 19.282C95.2214 19.5807 95.3334 19.9913 95.3334 20.514C95.3334 21.242 94.9694 21.9 94.2414 22.488C93.5227 23.0667 92.1367 23.4027 90.0834 23.496C89.7847 23.5053 89.0287 23.51 87.8154 23.51H87.1574ZM89.3134 21.396C89.612 21.396 89.836 21.3913 89.9854 21.382C92.1414 21.2887 93.2194 20.9947 93.2194 20.5C93.2194 20.1827 92.818 19.9447 92.0154 19.786C91.222 19.6273 90.3214 19.548 89.3134 19.548V21.396ZM89.7334 17.812C90.4894 17.812 91.0914 17.7653 91.5394 17.672C91.9967 17.5693 92.314 17.448 92.4914 17.308C92.678 17.168 92.7667 17.028 92.7574 16.888C92.7574 16.692 92.5847 16.5193 92.2394 16.37C91.9034 16.2113 91.4694 16.09 90.9374 16.006C90.4054 15.922 89.864 15.88 89.3134 15.88V17.812H89.7334ZM102.681 16.132C102.252 15.88 101.799 15.754 101.323 15.754C100.847 15.754 100.394 15.88 99.965 16.132C99.5356 16.3747 99.1856 16.7153 98.915 17.154C98.6536 17.5927 98.523 18.078 98.523 18.61C98.523 19.142 98.6536 19.6273 98.915 20.066C99.1856 20.5047 99.5356 20.85 99.965 21.102C100.394 21.3447 100.847 21.466 101.323 21.466C101.799 21.466 102.252 21.3447 102.681 21.102C103.11 20.85 103.456 20.5047 103.717 20.066C103.988 19.6273 104.123 19.142 104.123 18.61C104.123 18.078 103.988 17.5927 103.717 17.154C103.456 16.7153 103.11 16.3747 102.681 16.132ZM96.983 21.172C96.535 20.388 96.311 19.534 96.311 18.61C96.311 17.686 96.535 16.832 96.983 16.048C97.431 15.264 98.0376 14.6433 98.803 14.186C99.5776 13.7287 100.418 13.5 101.323 13.5C102.228 13.5 103.064 13.7287 103.829 14.186C104.594 14.6433 105.201 15.264 105.649 16.048C106.106 16.832 106.335 17.686 106.335 18.61C106.335 19.534 106.106 20.388 105.649 21.172C105.201 21.956 104.594 22.5767 103.829 23.034C103.064 23.4913 102.228 23.72 101.323 23.72C100.418 23.72 99.5776 23.4913 98.803 23.034C98.0376 22.5767 97.431 21.956 96.983 21.172ZM113.824 16.132C113.394 15.88 112.942 15.754 112.466 15.754C111.99 15.754 111.537 15.88 111.108 16.132C110.678 16.3747 110.328 16.7153 110.058 17.154C109.796 17.5927 109.666 18.078 109.666 18.61C109.666 19.142 109.796 19.6273 110.058 20.066C110.328 20.5047 110.678 20.85 111.108 21.102C111.537 21.3447 111.99 21.466 112.466 21.466C112.942 21.466 113.394 21.3447 113.824 21.102C114.253 20.85 114.598 20.5047 114.86 20.066C115.13 19.6273 115.266 19.142 115.266 18.61C115.266 18.078 115.13 17.5927 114.86 17.154C114.598 16.7153 114.253 16.3747 113.824 16.132ZM108.126 21.172C107.678 20.388 107.454 19.534 107.454 18.61C107.454 17.686 107.678 16.832 108.126 16.048C108.574 15.264 109.18 14.6433 109.946 14.186C110.72 13.7287 111.56 13.5 112.466 13.5C113.371 13.5 114.206 13.7287 114.972 14.186C115.737 14.6433 116.344 15.264 116.792 16.048C117.249 16.832 117.478 17.686 117.478 18.61C117.478 19.534 117.249 20.388 116.792 21.172C116.344 21.956 115.737 22.5767 114.972 23.034C114.206 23.4913 113.371 23.72 112.466 23.72C111.56 23.72 110.72 23.4913 109.946 23.034C109.18 22.5767 108.574 21.956 108.126 21.172ZM118.876 22.81V13.71H121.116V19.66L126.226 13.486L127.906 14.886L124.896 18.526L127.906 22.39L126.184 23.734L123.468 20.248L120.766 23.496L118.876 22.81ZM137.054 15.922H134.002V23.51H131.762V15.922H128.71V13.71H137.054V15.922ZM140.563 13.71H142.803L146.765 22.936L144.679 23.734L143.685 21.41H139.695L138.701 23.734L136.615 22.936L140.563 13.71ZM142.845 19.436L141.683 16.72L140.535 19.436H142.845ZM150.058 21.298H154.65V23.51H147.818V13.71H150.058V21.298ZM156.269 22.81V13.71H158.509V19.66L163.619 13.486L165.299 14.886L162.289 18.526L165.299 22.39L163.577 23.734L160.861 20.248L158.159 23.496L156.269 22.81Z" fill="black"/>
</g>
<defs>
<filter id="filter0_ii_770_8304" x="-0.5" y="-0.499969" width="36.6367" height="40.0461" filterUnits="userSpaceOnUse" color-interpolation-filters="sRGB">
<feFlood flood-opacity="0" result="BackgroundImageFix"/>
<feBlend mode="normal" in="SourceGraphic" in2="BackgroundImageFix" result="shape"/>
<feColorMatrix in="SourceAlpha" type="matrix" values="0 0 0 0 0 0 0 0 0 0 0 0 0 0 0 0 0 0 127 0" result="hardAlpha"/>
<feOffset dx="1" dy="0.5"/>
<feGaussianBlur stdDeviation="1.15"/>
<feComposite in2="hardAlpha" operator="arithmetic" k2="-1" k3="1"/>
<feColorMatrix type="matrix" values="0 0 0 0 1 0 0 0 0 1 0 0 0 0 1 0 0 0 0.65 0"/>
<feBlend mode="normal" in2="shape" result="effect1_innerShadow_770_8304"/>
<feColorMatrix in="SourceAlpha" type="matrix" values="0 0 0 0 0 0 0 0 0 0 0 0 0 0 0 0 0 0 127 0" result="hardAlpha"/>
<feOffset dx="-0.5" dy="-0.5"/>
<feGaussianBlur stdDeviation="1"/>
<feComposite in2="hardAlpha" operator="arithmetic" k2="-1" k3="1"/>
<feColorMatrix type="matrix" values="0 0 0 0 0 0 0 0 0 0 0 0 0 0 0 0 0 0 0.15 0"/>
<feBlend mode="normal" in2="effect1_innerShadow_770_8304" result="effect2_innerShadow_770_8304"/>
</filter>
<filter id="filter1_ii_770_8304" x="26.0566" y="17.4479" width="24.9434" height="27.5521" filterUnits="userSpaceOnUse" color-interpolation-filters="sRGB">
<feFlood flood-opacity="0" result="BackgroundImageFix"/>
<feBlend mode="normal" in="SourceGraphic" in2="BackgroundImageFix" result="shape"/>
<feColorMatrix in="SourceAlpha" type="matrix" values="0 0 0 0 0 0 0 0 0 0 0 0 0 0 0 0 0 0 127 0" result="hardAlpha"/>
<feOffset dx="1" dy="1"/>
<feGaussianBlur stdDeviation="0.5"/>
<feComposite in2="hardAlpha" operator="arithmetic" k2="-1" k3="1"/>
<feColorMatrix type="matrix" values="0 0 0 0 0 0 0 0 0 0 0 0 0 0 0 0 0 0 0.25 0"/>
<feBlend mode="normal" in2="shape" result="effect1_innerShadow_770_8304"/>
<feColorMatrix in="SourceAlpha" type="matrix" values="0 0 0 0 0 0 0 0 0 0 0 0 0 0 0 0 0 0 127 0" result="hardAlpha"/>
<feOffset dx="-0.5" dy="-0.5"/>
<feGaussianBlur stdDeviation="0.7"/>
<feComposite in2="hardAlpha" operator="arithmetic" k2="-1" k3="1"/>
<feColorMatrix type="matrix" values="0 0 0 0 1 0 0 0 0 1 0 0 0 0 1 0 0 0 0.41 0"/>
<feBlend mode="normal" in2="effect1_innerShadow_770_8304" result="effect2_innerShadow_770_8304"/>
</filter>
<clipPath id="clip0_770_8304">
<rect width="182" height="44" fill="white"/>
</clipPath>
</defs>
</svg>
