<svg width="19" height="20" viewBox="0 0 19 20" fill="none"
     xmlns="http://www.w3.org/2000/svg">
    <path
            d="M16.5 9.5H14.8C14.8 10.24 14.64 10.93 14.37 11.55L15.6 12.78C16.16 11.8 16.5 10.69 16.5 9.5ZM12.48 9.67C12.48 9.61 12.5 9.56 12.5 9.5V3.5C12.5 1.84 11.16 0.5 9.5 0.5C7.84 0.5 6.5 1.84 6.5 3.5V3.68L12.48 9.67ZM1.77 1.5L0.5 2.77L6.51 8.78V9.5C6.51 11.16 7.84 12.5 9.5 12.5C9.72 12.5 9.94 12.47 10.15 12.42L11.81 14.08C11.1 14.41 10.31 14.6 9.5 14.6C6.74 14.6 4.2 12.5 4.2 9.5H2.5C2.5 12.91 5.22 15.73 8.5 16.22V19.5H10.5V16.22C11.41 16.09 12.27 15.77 13.04 15.32L17.23 19.5L18.5 18.23L1.77 1.5Z"
            fill="#7B7B7B"/>
</svg>