<svg width="17" height="24" viewBox="0 0 17 24" fill="none" xmlns="http://www.w3.org/2000/svg">
<path d="M15.5 8C14.81 8 14.25 8.56 14.25 9.25V15H13.75C12.1 15 10.75 16.35 10.75 18H9.75C9.75 15.96 11.28 14.28 13.25 14.03V3.25C13.25 2.56 12.69 2 12 2C11.31 2 10.75 2.56 10.75 3.25V11H9.75V1.25C9.75 0.56 9.19 0 8.5 0C7.81 0 7.25 0.56 7.25 1.25V11H6.25V2.75C6.25 2.06 5.69 1.5 5 1.5C4.31 1.5 3.75 2.06 3.75 2.75V12H2.75V5.75C2.75 5.06 2.19 4.5 1.5 4.5C0.81 4.5 0.25 5.06 0.25 5.75V15.75C0.25 20.31 3.94 24 8.5 24C13.06 24 16.75 20.31 16.75 15.75V9.25C16.75 8.56 16.19 8 15.5 8Z" fill="#9D9D9D"/>
</svg>
