<svg width="20" height="20" viewBox="0 0 20 20" fill="none" xmlns="http://www.w3.org/2000/svg">
    <path
        d="M19.1 10.2045C19.1 9.56591 19.0432 8.95227 18.9375 8.36364H10V11.845H15.0932C14.8705 12.9886 14.2205 13.9568 13.2523 14.5954V16.8409H16.2841C18.0614 15.2045 19.1 12.9205 19.1 10.2045Z"
        fill="#4285F4"
    />
    <path
        d="M10 19C12.5545 19 14.7 18.1568 16.2841 16.8409L13.2523 14.5954C12.4091 15.1477 11.3182 15.4773 10 15.4773C7.53636 15.4773 5.45 13.8227 4.70682 11.59H1.57046V13.9068C3.14546 17.0386 6.31818 19 10 19Z"
        fill="#34A853"
    />
    <path
        d="M4.70682 11.59C4.50682 11.0377 4.39773 10.4432 4.39773 9.83182C4.39773 9.22046 4.50682 8.62591 4.70682 8.07364V5.75682H1.57046C0.940909 7.00682 0.590909 8.37955 0.590909 9.83182C0.590909 11.2841 0.940909 12.6568 1.57046 13.9068L4.70682 11.59Z"
        fill="#FBBC05"
    />
    <path
        d="M10 4.18636C11.4318 4.18636 12.7182 4.67955 13.7273 5.64773L16.3545 3.02046C14.6955 1.47046 12.55 0.5 10 0.5C6.31818 0.5 3.14546 2.46136 1.57046 5.75682L4.70682 8.07364C5.45 5.84091 7.53636 4.18636 10 4.18636Z"
        fill="#EA4335"
    />
</svg>