<svg width="42" height="39" viewBox="0 0 42 39" fill="none" xmlns="http://www.w3.org/2000/svg">
    <rect x="9" width="24" height="24" rx="12" fill="none"/>
    <path d="M30 4C28.89 3.65 27.67 3.5 26.5 3.5C24.55 3.5 22.45 3.9 21 5C19.55 3.9 17.45 3.5 15.5 3.5C13.55 3.5 11.45 3.9 10 5V19.65C10 19.9 10.25 20.15 10.5 20.15C10.6 20.15 10.65 20.1 10.75 20.1C12.1 19.45 14.05 19 15.5 19C17.45 19 19.55 19.4 21 20.5C22.35 19.65 24.8 19 26.5 19C28.15 19 29.85 19.3 31.25 20.05C31.35 20.1 31.4 20.1 31.5 20.1C31.75 20.1 32 19.85 32 19.6V5C31.4 4.55 30.75 4.25 30 4ZM30 17.5C28.9 17.15 27.7 17 26.5 17C24.8 17 22.35 17.65 21 18.5V7C22.35 6.15 24.8 5.5 26.5 5.5C27.7 5.5 28.9 5.65 30 6V17.5Z" fill="url(#paint0_linear_2212_8269)"/>
    <path d="M26.5 9.5C27.38 9.5 28.23 9.59 29 9.76V8.24C28.21 8.09 27.36 8 26.5 8C24.8 8 23.26 8.29 22 8.83V10.49C23.13 9.85 24.7 9.5 26.5 9.5Z" fill="url(#paint1_linear_2212_8269)"/>
    <path d="M22 11.49V13.15C23.13 12.51 24.7 12.16 26.5 12.16C27.38 12.16 28.23 12.25 29 12.42V10.9C28.21 10.75 27.36 10.66 26.5 10.66C24.8 10.66 23.26 10.96 22 11.49Z" fill="url(#paint2_linear_2212_8269)"/>
    <path d="M26.5 13.33C24.8 13.33 23.26 13.62 22 14.16V15.82C23.13 15.18 24.7 14.83 26.5 14.83C27.38 14.83 28.23 14.92 29 15.09V13.57C28.21 13.41 27.36 13.33 26.5 13.33Z" fill="url(#paint3_linear_2212_8269)"/>
    <path d="M6.7 34.99H5.5L4.95 33.25H1.85L1.3 34.99H0.1L2.71 27.15H4.08L6.7 34.99ZM4.63 32.24L3.4 28.3L2.16 32.24H4.63ZM8.96664 27.15V34.99H7.80664V27.15H8.96664Z" fill="black"/>
    <path d="M15.2357 31.368H16.4357C17.2117 31.368 17.6197 31.112 17.6197 30.448C17.6197 29.784 17.2117 29.528 16.4357 29.528H15.2357V31.368ZM16.7797 34.992H14.3077V28.72H16.6277C17.8997 28.72 18.5477 29.296 18.5477 30.384C18.5477 31.096 18.1797 31.56 17.5957 31.728C18.3157 31.88 18.7237 32.456 18.7237 33.224C18.7237 34.376 18.0917 34.992 16.7797 34.992ZM17.7957 33.176C17.7957 32.472 17.4277 32.168 16.5717 32.168H15.2357V34.184H16.5717C17.4277 34.184 17.7957 33.88 17.7957 33.176ZM21.6489 34.368C22.4729 34.368 22.7449 33.744 22.7449 32.752C22.7449 31.76 22.4729 31.136 21.6489 31.136C20.8249 31.136 20.5529 31.76 20.5529 32.752C20.5529 33.744 20.8249 34.368 21.6489 34.368ZM21.6489 30.408C22.9689 30.408 23.6249 31.256 23.6249 32.752C23.6249 34.248 22.9689 35.096 21.6489 35.096C20.3209 35.096 19.6649 34.248 19.6649 32.752C19.6649 31.256 20.3209 30.408 21.6489 30.408ZM26.5817 34.368C27.4057 34.368 27.6777 33.744 27.6777 32.752C27.6777 31.76 27.4057 31.136 26.5817 31.136C25.7577 31.136 25.4857 31.76 25.4857 32.752C25.4857 33.744 25.7577 34.368 26.5817 34.368ZM26.5817 30.408C27.9017 30.408 28.5577 31.256 28.5577 32.752C28.5577 34.248 27.9017 35.096 26.5817 35.096C25.2537 35.096 24.5977 34.248 24.5977 32.752C24.5977 31.256 25.2537 30.408 26.5817 30.408ZM32.6025 30.512H33.4905V35.16C33.4905 36.24 32.9385 37.072 31.5945 37.072C30.5225 37.072 29.8665 36.552 29.7465 35.696H30.6505C30.7145 36.136 31.0505 36.368 31.5945 36.368C32.2905 36.368 32.6025 35.96 32.6025 35.232V34.296C32.4345 34.784 31.9625 35.096 31.3225 35.096C30.2185 35.096 29.5305 34.36 29.5305 32.752C29.5305 31.144 30.2185 30.408 31.3225 30.408C31.9625 30.408 32.4345 30.72 32.6025 31.208V30.512ZM32.6025 32.752C32.6025 31.768 32.3385 31.144 31.5145 31.144C30.6825 31.144 30.4105 31.768 30.4105 32.752C30.4105 33.744 30.6825 34.36 31.5145 34.36C32.3385 34.36 32.6025 33.744 32.6025 32.752ZM35.668 34.992H34.78V30.512H35.668V34.992ZM35.668 29.664H34.78V28.72H35.668V29.664ZM40.7778 33.024H37.7138C37.7458 33.864 38.0738 34.36 38.8258 34.36C39.3858 34.36 39.7218 34.088 39.7858 33.648H40.6898C40.5458 34.552 39.8978 35.096 38.8258 35.096C37.4818 35.096 36.8258 34.248 36.8258 32.752C36.8258 31.264 37.4818 30.408 38.8098 30.408C40.1298 30.408 40.7858 31.264 40.7858 32.752C40.7858 32.848 40.7858 32.936 40.7778 33.024ZM38.8098 31.144C38.0898 31.144 37.7858 31.6 37.7218 32.352H39.8898C39.8258 31.6 39.5138 31.144 38.8098 31.144Z" fill="#262626"/>
    <defs>
        <linearGradient id="paint0_linear_2212_8269" x1="13.5895" y1="4.35" x2="31.6484" y2="12.8362" gradientUnits="userSpaceOnUse">
            <stop offset="0.206731" stop-color="#1A00E2"/>
            <stop offset="1" stop-color="#FF7544"/>
        </linearGradient>
        <linearGradient id="paint1_linear_2212_8269" x1="13.5895" y1="4.35" x2="31.6484" y2="12.8362" gradientUnits="userSpaceOnUse">
            <stop offset="0.206731" stop-color="#1A00E2"/>
            <stop offset="1" stop-color="#FF7544"/>
        </linearGradient>
        <linearGradient id="paint2_linear_2212_8269" x1="13.5895" y1="4.35" x2="31.6484" y2="12.8362" gradientUnits="userSpaceOnUse">
            <stop offset="0.206731" stop-color="#1A00E2"/>
            <stop offset="1" stop-color="#FF7544"/>
        </linearGradient>
        <linearGradient id="paint3_linear_2212_8269" x1="13.5895" y1="4.35" x2="31.6484" y2="12.8362" gradientUnits="userSpaceOnUse">
            <stop offset="0.206731" stop-color="#1A00E2"/>
            <stop offset="1" stop-color="#FF7544"/>
        </linearGradient>
    </defs>
</svg>
