<svg width="26" height="26" viewBox="0 0 26 26" fill="none" xmlns="http://www.w3.org/2000/svg">
<path fill-rule="evenodd" clip-rule="evenodd" d="M7.50064 3.48242C7.71378 3.48242 7.9182 3.56709 8.06891 3.7178C8.21962 3.86852 8.30429 4.07293 8.30429 4.28607V6.07338C11.3343 5.80404 14.3823 5.80404 17.4123 6.07338V4.28607C17.4123 4.07293 17.497 3.86852 17.6477 3.7178C17.7984 3.56709 18.0028 3.48242 18.2159 3.48242C18.4291 3.48242 18.6335 3.56709 18.7842 3.7178C18.9349 3.86852 19.0196 4.07293 19.0196 4.28607V6.23197C19.8013 6.34282 20.5253 6.70646 21.081 7.26736C21.6366 7.82826 21.9935 8.5556 22.097 9.33833L22.1902 10.038C22.5803 12.9805 22.546 15.9636 22.0895 18.8974C21.9795 19.6037 21.6379 20.2534 21.1185 20.7445C20.5991 21.2356 19.9313 21.5402 19.22 21.6106L17.9416 21.737C14.5609 22.07 11.1557 22.07 7.77496 21.737L6.49662 21.6106C5.78529 21.5402 5.11747 21.2356 4.59806 20.7445C4.07866 20.2534 3.73711 19.6037 3.62707 18.8974C3.1705 15.9643 3.13658 12.9808 3.52634 10.038L3.61957 9.33833C3.7231 8.5556 4.07995 7.82826 4.63562 7.26736C5.1913 6.70646 5.91527 6.34282 6.697 6.23197V4.28607C6.697 4.07293 6.78167 3.86852 6.93238 3.7178C7.08309 3.56709 7.2875 3.48242 7.50064 3.48242ZM7.97748 7.71818C11.2242 7.39779 14.4924 7.39779 17.7391 7.71818L18.7088 7.81461C19.6379 7.90569 20.3804 8.62469 20.5037 9.54942L20.5969 10.2491C20.629 10.4934 20.6583 10.7381 20.6847 10.9831H5.03184C5.05827 10.7381 5.08756 10.4934 5.11971 10.2491L5.21293 9.54942C5.2724 9.10003 5.48209 8.68395 5.80793 8.36881C6.13377 8.05367 6.55662 7.85798 7.00774 7.81354L7.97748 7.71818ZM4.90433 12.5904C4.79913 14.6156 4.90327 16.6462 5.21507 18.6499C5.2703 19.0041 5.44159 19.3299 5.70206 19.5763C5.96252 19.8226 6.29741 19.9754 6.65414 20.0108L7.93247 20.1372C11.2081 20.4608 14.5084 20.4608 17.7841 20.1372L19.0624 20.0108C19.4192 19.9754 19.7541 19.8226 20.0145 19.5763C20.275 19.3299 20.4463 19.0041 20.5015 18.6499C20.8144 16.644 20.9173 14.6135 20.8123 12.5904H4.90433Z" fill="#262626"/>
</svg>
