<svg width="26" height="26" viewBox="0 0 26 26" fill="none" xmlns="http://www.w3.org/2000/svg">
<path d="M13.7671 7.55836C13.7671 7.34358 13.6818 7.1376 13.5299 6.98573C13.378 6.83386 13.1721 6.74854 12.9573 6.74854C12.7425 6.74854 12.5365 6.83386 12.3847 6.98573C12.2328 7.1376 12.1475 7.34358 12.1475 7.55836V12.9572C12.1474 13.0945 12.1823 13.2295 12.2487 13.3497C12.3152 13.4698 12.4112 13.5711 12.5275 13.6439L15.7668 15.6685C15.949 15.7825 16.1689 15.8194 16.3783 15.7712C16.482 15.7474 16.5799 15.7033 16.6666 15.6416C16.7532 15.5799 16.8269 15.5017 16.8833 15.4115C16.9397 15.3213 16.9779 15.2209 16.9955 15.116C17.0131 15.0111 17.0099 14.9037 16.9861 14.8C16.9622 14.6964 16.9181 14.5984 16.8564 14.5117C16.7947 14.4251 16.7165 14.3515 16.6263 14.295L13.7671 12.508V7.55836Z" fill="#262626"/>
<path fill-rule="evenodd" clip-rule="evenodd" d="M12.9572 3.50928C10.4515 3.50928 8.04835 4.50468 6.27652 6.27652C4.50468 8.04835 3.50928 10.4515 3.50928 12.9572C3.50928 15.463 4.50468 17.8661 6.27652 19.6379C8.04835 21.4098 10.4515 22.4052 12.9572 22.4052C15.463 22.4052 17.8661 21.4098 19.6379 19.6379C21.4098 17.8661 22.4052 15.463 22.4052 12.9572C22.4052 10.4515 21.4098 8.04835 19.6379 6.27652C17.8661 4.50468 15.463 3.50928 12.9572 3.50928ZM5.12893 12.9572C5.12893 11.9292 5.33141 10.9112 5.72482 9.96147C6.11823 9.01169 6.69486 8.14871 7.42178 7.42178C8.14871 6.69486 9.01169 6.11823 9.96147 5.72482C10.9112 5.33141 11.9292 5.12893 12.9572 5.12893C13.9853 5.12893 15.0032 5.33141 15.953 5.72482C16.9028 6.11823 17.7657 6.69486 18.4927 7.42178C19.2196 8.14871 19.7962 9.01169 20.1896 9.96147C20.583 10.9112 20.7855 11.9292 20.7855 12.9572C20.7855 15.0334 19.9608 17.0246 18.4927 18.4927C17.0246 19.9608 15.0334 20.7855 12.9572 20.7855C10.881 20.7855 8.88987 19.9608 7.42178 18.4927C5.95369 17.0246 5.12893 15.0334 5.12893 12.9572Z" fill="#262626"/>
</svg>
