<svg width="26" height="24" viewBox="0 0 26 24" fill="none" xmlns="http://www.w3.org/2000/svg">
<path fill-rule="evenodd" clip-rule="evenodd" d="M18.0828 5.4C18.0828 8.38234 15.6652 10.8 12.6828 10.8C9.7005 10.8 7.28284 8.38234 7.28284 5.4C7.28284 2.41766 9.7005 0 12.6828 0C15.6652 0 18.0828 2.41766 18.0828 5.4ZM16.2828 5.4C16.2828 7.38822 14.6711 9 12.6828 9C10.6946 9 9.08284 7.38822 9.08284 5.4C9.08284 3.41177 10.6946 1.8 12.6828 1.8C14.6711 1.8 16.2828 3.41177 16.2828 5.4Z" fill="#7B7B7B"/>
<path d="M12.6828 13.5C6.85589 13.5 1.89118 16.9456 0 21.7728C0.460706 22.2303 0.946025 22.663 1.4538 23.0689C2.86206 18.6369 7.27988 15.3 12.6828 15.3C18.0858 15.3 22.5036 18.6369 23.9119 23.0689C24.4197 22.6631 24.905 22.2303 25.3657 21.7729C23.4745 16.9456 18.5098 13.5 12.6828 13.5Z" fill="#7B7B7B"/>
</svg>
