<svg width="42" height="42" viewBox="0 0 42 42" fill="none" xmlns="http://www.w3.org/2000/svg">
    <rect x="0.5" y="0.5" width="41" height="41" rx="20.5" fill="#FBEAE7"/>
    <rect x="0.5" y="0.5" width="41" height="41" rx="20.5" stroke="#C4C4C4"/>
    <path fill-rule="evenodd" clip-rule="evenodd" d="M27.3003 16.8C27.3003 20.2794 24.4797 23.1 21.0003 23.1C17.5209 23.1 14.7003 20.2794 14.7003 16.8C14.7003 13.3206 17.5209 10.5 21.0003 10.5C24.4797 10.5 27.3003 13.3206 27.3003 16.8ZM25.2003 16.8C25.2003 19.1196 23.3199 21 21.0003 21C18.6807 21 16.8003 19.1196 16.8003 16.8C16.8003 14.4804 18.6807 12.6 21.0003 12.6C23.3199 12.6 25.2003 14.4804 25.2003 16.8Z" fill="#9D9D9D"/>
    <path d="M21.0003 26.25C14.2022 26.25 8.40999 30.2698 6.20361 35.9016C6.7411 36.4354 7.30731 36.9402 7.89971 37.4137C9.54269 32.2431 14.6968 28.35 21.0003 28.35C27.3037 28.35 32.4578 32.2431 34.1008 37.4137C34.6932 36.9402 35.2594 36.4354 35.7969 35.9017C33.5905 30.2698 27.7984 26.25 21.0003 26.25Z" fill="#9D9D9D"/>
</svg>
